<?xml version="1.0" encoding="utf-8"?>
<!-- Generator: Adobe Illustrator 24.2.1, SVG Export Plug-In . SVG Version: 6.00 Build 0)  -->
<svg version="1.1" id="Layer_1" xmlns="http://www.w3.org/2000/svg" xmlns:xlink="http://www.w3.org/1999/xlink" x="0px" y="0px"
	 viewBox="0 0 80 70" style="enable-background:new 0 0 80 70;" xml:space="preserve">
<path d="M63.3,50c-4,4.2-9.5,6.5-15.2,6.5c-5.8-0.1-11.3-2.5-15.3-6.7L23,40.1c-1.2-1.3-1.2-3.3,0.1-4.5c0.6-0.6,1.4-0.9,2.2-0.9
	c0.9,0,1.7,0.3,2.3,1l9.7,9.7c2.8,3,6.7,4.7,10.8,4.8c4.1,0,7.9-1.7,10.7-4.6c2.9-2.9,4.5-6.9,4.5-11c0-8.4-6.8-15.2-15.2-15.2
	c-3-0.1-6,0.7-8.4,2.5c0,0-0.7-0.5-1.5-1c-0.5-0.3-1-0.6-1.4-0.8c-0.5-0.3-1.8-0.9-2.6-1.2c-0.2-0.1-0.4-0.2-0.6-0.2l0,0
	c3.9-3.7,9.1-5.7,14.5-5.6c11.9,0,21.6,9.7,21.6,21.6C69.6,40.4,67.3,45.9,63.3,50 M26.8,56.4C17,56.4,9,48.4,9,38.6
	c0-9.8,7.9-17.7,17.7-17.7c4.4,0,8.6,1.6,11.8,4.5l0.1,0.1L46,33c0.6,0.6,0.9,1.4,0.9,2.3c0,0.8-0.4,1.6-1,2.2
	c-0.6,0.6-1.4,0.9-2.2,0.9c-0.9,0-1.7-0.3-2.3-1l-7.3-7.5c-2.1-1.8-4.7-2.7-7.4-2.7c-6.3,0-11.3,5.1-11.4,11.3
	C15.5,44.8,20.6,49.9,27,50h1.5l0,0c2.1,2.9,7.9,6.4,7.9,6.4L26.8,56.4z M65.8,17.5c-4.7-5.1-11.3-7.9-18.2-7.9
	c-6.8,0-13.2,2.7-18,7.6c-0.8-0.1-1.6-0.1-2.4-0.1c-11.8,0-21.3,9.6-21.4,21.4c0,5.6,2.2,10.9,6,14.9c4,4.3,9.5,6.7,15.4,6.7h20.4
	c13.9-0.1,25.1-11.4,25.1-25.3C72.7,28.3,70.2,22.2,65.8,17.5"/>
</svg>
