<svg viewBox="0 0 1024 1176.463" xmlns="http://www.w3.org/2000/svg"><path d="M747.572 338.048c-8.56 8.694-20.46 14.08-33.616 14.08-.99 0-1.973-.03-2.948-.09l.134.006c-.317.007-.69.01-1.066.01-13.442 0-25.636-5.34-34.575-14.018l.013.012c-8.448-9.208-13.625-21.535-13.625-35.07 0-.605.01-1.208.03-1.807v.088c-.02-.5-.03-1.09-.03-1.68 0-13.305 5.51-25.323 14.372-33.897l.013-.01c9.202-8.67 21.636-13.998 35.314-13.998h.375-.02c.746-.04 1.618-.064 2.495-.064 13.24 0 25.227 5.374 33.895 14.06 8.198 8.946 13.22 20.917 13.22 34.06 0 .538-.008 1.074-.025 1.608l.002-.078c.02.54.03 1.172.03 1.807 0 13.57-5.327 25.898-14.006 35.003l.02-.02zm8.358 361.096c0 4.4-1.56 6.4-5.158 6.4h-78.417c-.133.01-.288.018-.444.018-3.1 0-5.612-2.513-5.612-5.613 0-.285.02-.564.062-.837l-.004.03v-307.91c0-4 1.64-5.6 5.24-5.6h79.176c3.6 0 5.158 2 5.158 5.6zm-135.962 6h-83.615c-.166.016-.36.026-.554.026-2.758 0-5.082-1.853-5.795-4.382l-.01-.042-32.79-95.172H348.446l-30.39 93.973c-.674 3.257-3.518 5.67-6.926 5.67-.236 0-.47-.012-.702-.034l.03.002h-75.18c-4.398 0-5.597-2.44-4.398-7.197l128.763-370.733c1.2-4 2.4-8.397 4-13.196 1.525-7.75 2.398-16.663 2.398-25.778v-.228.012c-.02-.15-.03-.326-.03-.504 0-1.93 1.38-3.538 3.206-3.89l.025-.005h103.57c3.2 0 4.8 1.2 5.2 3.2L623.966 698.75c1.2 4.356 0 6.396-4 6.396zM821.91 44.134H201.946c-93.783 0-169.81 76.026-169.81 169.81v.15-.008 595.971c0 93.783 76.027 169.81 169.81 169.81h620.109c93.783 0 169.81-76.027 169.81-169.81v-.15.007-595.828-.143c0-93.783-76.027-169.81-169.81-169.81h-.15.007zm-368.693 417.08c-4-12.396-7.597-24.392-11.597-36.79s-7.597-23.992-10.797-35.59c-3.2-11.196-5.998-21.593-8.797-31.19h-.8c-4.313 20.86-9.005 38.16-14.59 55.054l.994-3.47c-6 19.194-11.997 39.188-18.395 59.183-5.6 20.395-11.597 39.19-17.595 55.985h101.568c-2.4-8.438-5.598-18.394-9.197-28.83-3.594-10.757-7.194-22.354-10.793-34.35z"/></svg>