<svg viewBox="0 0 1024 1176.463" xmlns="http://www.w3.org/2000/svg"><path d="M809.914 665.556c-11.17 15.785-26.37 28.04-44.117 35.384l-.67.246c-19.975 8.09-43.142 12.784-67.406 12.784-1.762 0-3.52-.025-5.27-.074l.257.006c-.39.002-.853.003-1.315.003-18.763 0-37.086-1.88-54.793-5.46l1.763.3c-15.322-2.718-29.006-7.162-41.777-13.22l.99.423c-2.657-1.284-4.456-3.958-4.456-7.05 0-.18.006-.356.018-.53v.023-69.58c-.003-.046-.004-.1-.004-.155 0-1.386.637-2.624 1.634-3.436l.008-.007c.438-.258.965-.41 1.528-.41.8 0 1.528.307 2.072.812l-.002-.002c14.28 8.59 30.84 15.348 48.444 19.375l1.142.22c14.048 3.81 30.177 5.998 46.818 5.998h.39-.02c1.237.072 2.685.113 4.143.113 10.478 0 20.462-2.115 29.55-5.94l-.502.188c6.404-3.005 10.766-9.387 10.797-16.79v-.005c-.577-6.724-4.225-12.49-9.52-15.946l-.08-.05c-11.263-7.39-24.207-13.765-37.926-18.47l-1.224-.365c-21.673-7.755-40.43-17.464-57.616-29.294l.833.542c-12.482-9.01-22.693-20.36-30.16-33.472l-.27-.517c-5.79-11.28-9.184-24.612-9.184-38.736 0-.735.008-1.468.026-2.2l-.002.11c.06-17.897 5.124-34.597 13.87-48.79l-.233.405c10.216-15.994 24.472-28.593 41.35-36.538l.6-.254c18.966-8.89 41.184-14.077 64.614-14.077 2.155 0 4.3.045 6.432.132l-.306-.01c17.5.005 34.69 1.313 51.482 3.833l-1.896-.234c12.826 1.77 24.42 4.99 35.32 9.543l-.93-.344c1.768.65 3.175 1.928 3.98 3.556l.02.042c.435 1.42.72 3.06.798 4.757l.002.043V467.658c0 1.617-.78 3.053-1.986 3.95l-.013.01c-1.07.396-2.308.625-3.6.625s-2.527-.23-3.672-.65l.074.024c-11.082-5.968-23.928-10.672-37.478-13.44l-.912-.157c-13.408-3.174-28.84-5.06-44.692-5.198h-.095c-.822-.03-1.787-.048-2.756-.048-7.57 0-14.897 1.04-21.847 2.982l.57-.136c-5.117 1.105-9.428 3.982-12.356 7.944l-.04.056c-1.94 3.07-3.12 6.787-3.2 10.775v.02c.196 3.984 1.69 7.585 4.062 10.426l-.023-.027c3.75 4.397 8.26 8.015 13.35 10.68l.246.117c9.156 4.8 18.793 9.197 28.35 13.196 23.55 8.013 43.917 17.886 62.798 29.89l-1.174-.7c13.166 8.343 23.822 19.523 31.313 32.734l.24.458c5.818 11.287 9.23 24.632 9.23 38.774 0 .835-.013 1.667-.037 2.496l.003-.122c.01.523.017 1.14.017 1.757 0 19.18-5.817 37.002-15.783 51.797l.21-.33zM526.356 510c-15.974 22.085-37.884 38.98-63.395 48.476l-.944.308c-24.787 8.676-53.363 13.687-83.11 13.687-2.414 0-4.82-.032-7.217-.098l.352.008c-9.6 0-15.996 0-19.994-.4s-9.6-.396-17.2-.396v128.32c.028.198.043.426.043.658 0 2.567-1.93 4.684-4.417 4.978l-.024.002h-77.576c-3.2 0-4.8-1.64-4.8-5.238v-411.44c0-2.8 1.2-4.4 4-4.4 6.797 0 13.195 0 22.393-.4 9.597-.4 19.594-.4 30.39-.798s22.395-.4 34.79-.8 24.394-.4 36.39-.4c2.013-.062 4.38-.097 6.754-.097 27.07 0 53.073 4.574 77.275 12.992l-1.65-.5c20.914 7.227 38.82 18.435 53.62 32.823l-.034-.032c12.547 12.585 22.477 27.786 28.9 44.712l.293.875c5.763 15.462 9.116 33.326 9.157 51.967v.018c.078 1.756.122 3.817.122 5.887 0 29.566-9.01 57.028-24.434 79.79l.32-.5zM821.91 44.135H201.946c-93.783 0-169.81 76.026-169.81 169.81v.15-.008 595.931c0 93.783 76.027 169.81 169.81 169.81h620.109c93.783 0 169.81-76.027 169.81-169.81v-.15.007-595.788-.143c0-93.783-76.027-169.81-169.81-169.81h-.15.007zM426.024 368.84c-12.684-5.114-27.393-8.08-42.795-8.08-1.545 0-3.083.03-4.612.088l.22-.007c-10.397 0-19.595 0-27.192.4-1.787-.123-3.873-.194-5.976-.194-3.67 0-7.292.216-10.85.636l.43-.04V496c5.6.4 10.797.8 15.596.8h21.371c16.37 0 32.126-2.633 46.865-7.5l-1.055.303c13.16-3.948 24.288-11.327 32.714-21.102l.076-.09c7.814-10.237 12.52-23.213 12.52-37.287 0-1.372-.045-2.733-.133-4.083l.01.184c.02-.59.03-1.286.03-1.983 0-12.4-3.43-24-9.392-33.903l.167.298c-6.683-10.296-16.27-18.207-27.598-22.657l-.395-.135z"/></svg>