<svg viewBox="0 0 1024 1176.463" xmlns="http://www.w3.org/2000/svg"><path d="M626.368 453.217c-.33-.004-.718-.006-1.107-.006-16.066 0-31.235 3.845-44.636 10.663l.56-.26c-13.882 7.016-25.323 17.05-33.795 29.294l-.196.298c-8.342 13.267-13.29 29.4-13.29 46.687 0 1.44.033 2.875.1 4.3l-.007-.202c-.022.825-.034 1.796-.034 2.77 0 13.79 2.505 26.996 7.086 39.186l-.254-.768c4.09 11.088 10.218 20.56 17.993 28.394l-.006-.005c7.472 7.14 16.58 12.636 26.703 15.86l.49.136c9.728 3.297 20.933 5.2 32.583 5.2.213 0 .426 0 .64-.002h-.034c5.998 0 11.596-.4 16.795-.8.786.065 1.7.102 2.623.102 4.227 0 8.274-.77 12.01-2.178l-.236.078V456.015c-2.884-.742-6.545-1.443-10.27-1.942l-.525-.058c-4.4-.4-8.797-.8-13.195-.8zM297.26 283.665h77.98c.21-.035.454-.055.703-.055 2.332 0 4.252 1.767 4.493 4.035l.002.02c.254.264.41.623.41 1.02 0 .063-.003.125-.01.187v-.007 410.282c0 4.4-2 6.4-5.6 6.4h-78.377c-3.598 0-5.197-2-5.197-6.4V288.865c0-3.6 2-5.2 5.598-5.2zm357.1-34.39h81.175c.148-.02.32-.033.494-.033 1.713 0 3.145 1.203 3.5 2.81l.003.024v381.49c0 7.198.4 15.196.8 23.993.8 8.397 1.2 16.395 1.6 23.193.008.12.012.26.012.4 0 2.69-1.637 5-3.97 5.984l-.042.016c-18.702 8.118-40.57 14.775-63.315 18.913l-1.866.282c-18.493 3.518-39.785 5.554-61.545 5.6h-.038c-.972.016-2.118.026-3.266.026-29.992 0-58.433-6.64-83.933-18.534l1.224.512c-25.38-12.055-45.963-30.71-60.035-53.77l-.35-.614c-13.912-24.366-22.116-53.547-22.116-84.644 0-2.296.045-4.582.133-6.857l-.01.327c-.01-.668-.015-1.457-.015-2.248 0-30.24 8.172-58.57 22.43-82.903l-.42.775c15.414-26.143 36.963-47.18 62.736-61.55l.844-.432c27.5-14.675 60.143-23.294 94.8-23.294 2.24 0 4.474.036 6.697.108l-.326-.008c.24-.003.524-.005.808-.005 2.673 0 5.312.147 7.91.433l-.32-.03c3.6.4 7.598.4 12.397.8V253.676c-.003-2.8 1.196-4.4 3.996-4.4zM202.09 44.136h-.144c-93.783 0-169.81 76.025-169.81 169.808v.15-.007 595.971c0 93.783 76.027 169.81 169.81 169.81h620.109c93.783 0 169.81-76.027 169.81-169.81v-.15.007-595.828-.143c0-93.783-76.027-169.81-169.81-169.81h-.15.007z"/></svg>