<svg fill="none" height="32" viewBox="0 0 32 32" width="32" xmlns="http://www.w3.org/2000/svg"><g fill="#000"><path d="m15.5215 18.013v-4.0259h-2.078c-1.1117 0-2.0129.9012-2.0129 2.013 0 1.1074.8943 2.006 2.0002 2.0129h.0127z"/><path d="m11.4306 21.0065c0-1.1075.8943-2.0061 2.0002-2.0129h.0127 2.078v1.9804c0 1.1256-.928 2.0454-2.0618 2.0454-1.1159 0-2.0291-.9053-2.0291-2.0129z"/><path d="m18.515 18.013c-1.1117 0-2.0129-.9012-2.0129-2.0129 0-1.1118.9012-2.013 2.0129-2.013h.0651c1.1117 0 2.0129.9012 2.0129 2.013 0 1.1117-.9012 2.0129-2.0129 2.0129z"/><path d="m18.5801 13.0065h-2.078v-4.02594h2.078c1.1117 0 2.0129.90123 2.0129 2.01294 0 1.1117-.9012 2.013-2.0129 2.013z"/><path d="m13.4435 8.98056h2.078v4.02594h-2.078c-1.1117 0-2.0129-.9013-2.0129-2.013 0-1.11171.9012-2.01294 2.0129-2.01294z"/><path clip-rule="evenodd" d="m27 0c2.7614 0 5 2.23858 5 5v22c0 2.7614-2.2386 5-5 5h-22c-2.76142 0-5-2.2386-5-5v-22c0-2.76142 2.23858-5 5-5zm-13.5565 8c-1.6532 0-2.9935 1.34024-2.9935 2.9935 0 1.0469.5374 1.9682 1.3513 2.5033-.8139.535-1.3513 1.4564-1.3513 2.5033 0 1.0468.5373 1.9681 1.3512 2.5032-.8139.535-1.3512 1.4564-1.3512 2.5032 0 1.6574 1.3605 2.9935 3.0097 2.9935 1.6671 0 3.0424-1.3507 3.0424-3.026v-2.7582c.5316.4832 1.2379.7778 2.0129.7778h.0651c1.6532 0 2.9935-1.3403 2.9935-2.9935 0-1.0469-.5374-1.9683-1.3514-2.5033.814-.5351 1.3514-1.4564 1.3514-2.5033 0-1.65326-1.3403-2.9935-2.9935-2.9935z" fill-rule="evenodd"/></g></svg>