<?xml version="1.0" encoding="UTF-8"?>
<svg id="Layer_2" data-name="Layer 2" xmlns="http://www.w3.org/2000/svg" viewBox="0 0 2000.88 162.84">
  <defs>
    <style>
      .cls-1 {
        fill: #eadde6;
      }

      .cls-2 {
        fill: #bf95b1;
      }

      .cls-3 {
        fill: #b17fa0;
      }

      .cls-3, .cls-4 {
        opacity: .9;
      }

      .cls-5 {
        fill: #cfafc4;
      }

      .cls-6 {
        fill: #dec8d7;
      }

      .cls-7 {
        fill: #f7f2f5;
      }

      .cls-8 {
        fill: none;
        stroke: #cba9c0;
      }
    </style>
  </defs>
  <g id="Layer_2-2" data-name="Layer 2">
    <g class="cls-4">
      <g class="cls-4">
        <path class="cls-6" d="M1590.36,59.67c-.94-1.08-3.35-2.16-6.9-3.17-3.57-.98-8.25-1.95-13.74-2.82-10.97-1.7-25.3-2.98-39.64-3.56-3.6-.2-7.18-.28-10.73-.36-3.55-.07-7.07-.15-10.51-.22-6.82-.01-13.36-.06-19.15,0-5.78.04-10.88.07-14.95.1-4.03.02-7.05-.02-8.69-.17-1.84-.09-3.84-.15-5.96-.17-2.11-.01-4.35,0-6.72.05-2.37.05-4.86.13-7.47.23-2.59.11-5.27.24-8.06.4-11.21.66-23.74,1.65-37.1,2.79-13.26,1.04-27.29,2.19-41.35,2.95-3.53.22-7.03.3-10.56.47l-5.29.23-5.26.11c-3.51.07-7.01.14-10.5.2-3.48-.02-6.93-.04-10.37-.06-3.45.03-6.84-.11-10.21-.23-3.4-.12-6.76-.23-10.07-.35-7.11-.37-14.01-.74-20.63-1.09-13.29-.71-25.43-1.35-35.71-1.9-20.6-1.14-33.81-2.04-33.82-2.98,1.34-2.51-9.35-11.22-23.18-19.63-13.8-8.42-30.86-16.45-41.59-17.87-13.1-1.84-26.33-3.07-39.65-3.68-1.66-.07-3.32-.14-4.98-.21-.79-.04-1.76-.05-2.68-.06l-2.79-.04c-3.71-.04-7.41-.05-11.09-.02-3.61.13-7.21.29-10.78.48-1.78.11-3.59.17-5.32.33-1.74.16-3.47.32-5.2.48-13.92,1.25-26.86,3.53-39.1,6.15-6.03,1.37-12.01,2.77-17.61,4.35-2.82.78-5.63,1.56-8.37,2.37-2.7.82-5.37,1.65-8,2.49-5.26,1.54-9.19,2.9-12.49,4.05-3.25,1.18-5.79,2.1-7.98,2.89-4.32,1.54-7.37,2.38-11.95,2.52-1.84.16-5.05,2.96-10.99,6.71-2.94,1.85-6.59,3.95-11.1,6.07-2.23,1.03-4.68,2.07-7.37,3.08-1.34.51-2.75,1.01-4.22,1.51-1.45.47-2.96.93-4.54,1.37-2.18.58-4.45,1.09-6.79,1.57-2.34.46-4.7.8-7.13,1.15-2.42.32-4.91.69-7.35.92-2.45.22-4.92.45-7.38.68-9.83.79-19.45,1.38-27.55,2.95-1.96.27-4.18.6-6.67.79-2.49.2-5.23.38-8.17.56-5.86.42-12.67.45-20.02.57-14.76,0-31.98-.63-49.52-1.61-17.53-.98-35.42-2.19-51.3-3.02-3.98-.2-7.82-.39-11.49-.57-3.69-.14-7.22-.26-10.54-.39-1.66-.06-3.27-.11-4.82-.16-1.56-.03-3.07-.05-4.51-.07-2.89-.03-5.53-.06-7.9-.08-4.49-.06-8.9.06-13.15.09-2.13.02-4.22.05-6.29.07-2.06.02-4.12.12-6.13.18-4.02.12-7.93.25-11.74.36-3.82.2-7.53.4-11.17.59-1.81.1-3.6.15-5.38.28-1.78.14-3.54.28-5.28.41-3.48.26-6.88.51-10.22.76-3.33.32-6.6.64-9.82.96-1.61.15-3.21.3-4.8.45-1.58.18-3.15.37-4.72.55-3.13.34-6.23.68-9.31,1.01-3.06.38-6.11.75-9.15,1.13l-4.57.52c-1.51.2-3.03.39-4.54.59-3.04.37-6.08.74-9.15,1.11-12.2,1.55-24.76,3.05-38.36,4.45-20.52,1.62-38.61,4.02-56.72,5.43-18.1,1.43-36.23,1.79-56.21-.52-10.58-1.17-20.64-2.5-30.37-3.72-9.73-1.24-19.19-2.41-28.68-3.53-19.07-2.15-38.24-4.33-61.65-5.32-2.8-.14-5.58-.29-8.34-.43-1.37-.09-2.8-.08-4.21-.1-1.41,0-2.82-.02-4.23-.03-2.78-.08-5.72.15-8.59.27l-2.16.11-1.08.06-.99.08-3.9.31c-10.36.87-20.46,1.94-30.62,3.08-20.3,2.31-40.74,5-62.66,7.84-5.82,1.08-11.62,2.12-15.69,3.53-4.11,1.42-15.4,2.3-21.19,3.2-8.9.46-17.59.58-26.11.45-8.53-.1-16.89-.43-25.14-.86-8.25-.4-16.38-.95-24.42-1.5-8.04-.55-16.01-1.1-23.78-1.75-2.18-.16-4.51-.37-6.88-.39-2.29-.12-4.55-.14-6.48-.08-1.86,0-3.44.15-4.45.46-.25.08-.47.17-.64.26-.19.09-.35.19-.45.31-.2.23-.17.53.12.89,1.17,1.69,2.57,3.39,4.2,5.12,1.7,1.64,3.63,3.29,5.79,4.91,4.39,3.12,9.69,6.15,15.77,8.77,6.06,2.71,12.86,4.99,20.16,7.13,7.3,2.04,15.11,3.9,23.23,5.43,15.4,2.89,33.02,3.36,51.71,2.64,18.7-.72,38.49-2.64,58.55-4.43,13.87-1.29,26.8-1.85,38.81-1.75,12.01.1,23.12.86,33.22,2.22,2.53.33,4.96.73,7.35,1.14,2.04.53,3.99,1.08,5.87,1.64.91.26,1.92.62,2.88.95.96.35,1.91.69,2.85,1.02.93.35,1.84.7,2.75,1.04.94.4,1.86.79,2.78,1.18,1.82.79,3.57,1.58,5.29,2.39,1.76.86,3.47,1.73,5.12,2.6,3.26,1.69,6.5,3.6,9.46,5.4,8.32,5.68,15.36,12.84,25.97,19.23,2.61,1.57,5.53,3.14,8.71,4.6,3.15,1.45,6.7,2.85,10.6,4.12,1.93.63,4.01,1.24,6.2,1.82,2.19.58,4.46,1.12,6.89,1.62,2.46.51,5.03.97,7.73,1.39,2.68.42,5.65.8,8.67,1.12,3.51.35,7.28.63,10.9.91,1.79.14,3.71.25,5.6.37,1.89.1,3.78.21,5.66.31,1.98.07,3.95.15,5.92.22,1.99.05,3.93.16,5.95.14,4.01-.02,8-.04,11.98-.05,3.98.02,7.93-.21,11.87-.41l5.9-.31c1.96-.11,3.93-.19,5.86-.39,3.88-.35,7.75-.71,11.62-1.06l2.9-.27,2.85-.35,5.7-.7c7.67-.84,15-2.05,22.47-3.05,7.19-1.11,14.42-2.23,21.71-3.35,14.29-2.15,28.25-4.12,41.8-5.05,19.04-1.11,34.82-1.41,50.02-1.02l2.86.04,2.82.13c1.87.08,3.75.16,5.64.24,3.78.07,7.51.43,11.3.64,1.91.13,3.77.18,5.76.35,1.99.17,4,.33,6.03.5,2.03.15,4.08.3,6.15.45,2.12.2,4.26.4,6.43.61,4.68.73,24.57,3.83,31.6,4.79,20.58,1.18,43.77,4.77,66.58,7.24,22.76,2.46,45.01,3.63,62.27.25,26.9.82,48.16,1.81,68.36,1.31,5.04-.04,9.97-.34,14.89-.67,2.45-.18,4.95-.32,7.35-.6,2.41-.26,4.83-.54,7.27-.85,2.42-.32,4.92-.62,7.33-1.04,2.43-.41,4.88-.86,7.36-1.34,5.02-.93,9.97-2.15,15.17-3.52,13.1-3.65,25.82-7.57,38.23-11.44,6.16-1.89,12.35-3.79,18.6-5.7,6.12-1.84,12.33-3.66,18.46-5.33,12.32-3.37,24.74-6.41,37.31-8.51,12.58-2.13,25.4-3.5,38.4-3.53,16.1-.06,31.95.64,47.59,1.86,15.67,1.24,31.21,3.04,47.05,5.38,5.63.72,18.26,4.43,30.97,8.53,12.71,4.11,25.51,8.61,31.45,10.8,11.09,3.99,25.24,6.03,39.75,6.87,15.95.86,31.97.13,44.57-1.6,19.89-3.26,39.45-6.77,59.48-10.44,20.03-3.65,40.52-7.46,62.36-10.96,15.63-1.67,29.88,0,46.78-.74,19.89-1.55,36.84-3.75,53.24-5.57,16.46-1.82,32.63-3.34,50.49-3.6,16.74.64,31.1,1.18,43.43,1.65,12.42.47,22.89.78,31.66.92,17.55.28,28.32-.04,34.97-.51,13.3-.94,10.12-2.2,12.92-1.69,3.46.15,6.38.63,9.1,1.28,2.72.63,5.24,1.43,7.88,2.28,5.34,1.71,10.83,3.51,19.27,4.32,22.83,1.48,45.55-.63,60.69-3.42,22.43-3.66,47.43-7.43,73.64-10.98,26.24-3.41,53.62-6.87,81.94-8.25-3.54-.72-5.02-2.17-8.84-1.8-19.79.84-38.6.53-56.87-.57-18.28-1.09-36-2.98-53.86-5.06-17.85-2.07-35.86-4.34-54.73-6.12-9.43-.89-19.07-1.67-28.99-2.25-4.96-.3-9.99-.55-15.1-.73-5.09-.19-10.34-.33-15.44-.46-3.98.27-8.5.63-13.25.81-2.37.1-4.8.19-7.23.22-2.44.01-4.89-.02-7.31-.12-17.23-1.12-32.9-1.88-48.59-2.69-13.56-1.09-31.68-6.17-47.36-11.77-15.67-5.61-29-11.68-32.27-15.44Z"/>
        <path class="cls-3" d="M185.98,107.47c-20.06,1.8-39.85,3.74-58.54,4.47-18.68.75-36.29.26-51.68-2.57-16.24-3.11-31.25-7.12-43.4-12.44-12.15-5.25-21.35-11.75-25.89-18.66-.93-1.36,1.65-1.89,5.41-1.95.98-.05,2.03-.06,3.12-.04,1.1.02,2.25.05,3.4.08,2.37.03,4.7.24,6.9.37,7.8.6,15.75,1.17,23.8,1.67,8.05.5,16.16,1.07,24.42,1.45,8.25.4,16.61.74,25.14.82,8.52.11,17.21,0,26.11-.48,5.79-.89,17.11-1.8,21.18-3.21,4.06-1.42,9.87-2.45,15.68-3.54,21.94-2.86,42.39-5.55,62.69-7.86,10.16-1.15,20.27-2.21,30.64-3.07l3.92-.31,4.33-.22c1.44-.07,2.89-.14,4.33-.2,1.43-.04,2.82,0,4.24,0,5.68-.05,11.19.29,16.75.64,11.75.44,22.32,1.39,32.44,2.3,10.11.93,19.66,2.03,29.19,3.12,9.49,1.12,18.94,2.29,28.67,3.53,9.72,1.22,19.77,2.53,30.32,3.67,19.95,2.27,38.08,1.84,56.17.37,18.11-1.45,36.19-3.87,56.75-5.52,13.6-1.4,26.18-2.91,38.4-4.43,6.15-.69,12.16-1.54,18.27-2.2,3.05-.37,6.1-.73,9.17-1.1,3.08-.33,6.19-.67,9.32-1.01,1.57-.17,3.14-.38,4.73-.53,1.59-.14,3.19-.29,4.81-.43,3.23-.31,6.5-.62,9.83-.94,3.35-.24,6.75-.49,10.23-.74,1.74-.13,3.5-.26,5.28-.4,1.77-.09,3.56-.17,5.38-.26,3.63-.19,7.35-.38,11.17-.57,3.81-.11,7.72-.23,11.74-.35,4.04-.17,8.15-.16,12.41-.22,4.26-.05,8.66-.13,13.15-.07,4.73.04,10.6.06,17.22.33,3.32.12,6.84.25,10.53.39,3.67.19,7.51.38,11.48.58,15.87.84,33.74,2.04,51.27,3.03,17.53.98,34.73,1.59,49.48,1.56,7.35-.09,14.14-.17,20-.59,2.94-.17,5.68-.36,8.17-.56,2.48-.25,4.7-.54,6.67-.82,4.02-.84,8.5-1.25,13.11-1.8,2.32-.24,4.69-.44,7.1-.61,1.2-.1,2.42-.14,3.64-.26,1.22-.11,2.44-.23,3.67-.34,2.45-.22,4.92-.45,7.37-.67,2.47-.28,4.94-.61,7.35-.94,4.82-.63,9.57-1.58,13.9-2.73,0,0,3.28.79,10.36,1.93,1.77.28,3.77.61,6,.97,2.26.31,4.76.65,7.51,1.03,5.48.75,12.05,1.47,19.66,2.26-13.39,3.38-26.63,6.63-39.85,9.56-13.22,2.92-26.35,5.38-39.63,7.29l-9.99,1.32c-1.67.24-3.35.39-5.03.56l-5.05.5c-6.73.75-13.54,1.15-20.36,1.64-3.41.28-6.84.35-10.27.54-3.43.14-6.86.37-10.31.44-6.89.18-13.8.42-20.73.47-27.71.39-55.68-.14-83.5.13-27.81.18-55.5,1.43-82.4,4.81-18.26.16-36.46,1.6-54.74,3.99-18.28,2.36-36.63,5.64-55.35,8.77-18.7,3.11-37.79,5.97-57.22,7.46l-7.29.54c-2.43.18-4.88.21-7.32.32l-7.33.28c-2.44.08-4.9.02-7.34.03h-7.35c-2.45,0-4.9-.19-7.34-.27-4.9-.22-9.8-.37-14.66-.81-9.72-.78-19.24-1.82-28.65-2.94l-28.07-3.37c-18.59-2.21-37.03-4.16-55.14-4.94-9.03-.33-17.95-.33-26.51.29l-6.33.61-6.88.9-13.86,1.93c-18.54,2.67-37.23,5.5-55.99,8.11Z"/>
        <path class="cls-2" d="M919.39,62.58s.55-.12,1.57-.35c1.03-.24,2.54-.59,4.46-1.03,3.85-.88,9.34-2.14,15.88-3.63,13.14-2.99,30.71-7.1,48.45-10.39,17.7-3.31,35.65-5.58,48.32-5.33,6.37.18,11.34.88,14.24,2.22,2.93,1.4,3.78,3.42,1.97,6.16,0,0-.48.22-1.4.65-.91.44-2.26,1.09-4,1.93-3.47,1.68-8.54,3.98-14.69,7.04-6.19,2.97-13.49,6.61-21.63,10.6-4.04,1.99-8.32,4.1-12.78,6.3-4.44,2.2-9.07,4.42-13.85,6.71-9.56,4.56-19.72,9.26-30.38,13.72-5.31,2.26-10.79,4.37-16.32,6.48-2.78,1.03-5.59,2.01-8.41,2.99-2.82.98-5.66,1.94-8.55,2.8-2.88.88-5.77,1.74-8.66,2.57-2.9.82-5.85,1.53-8.78,2.25-5.85,1.48-11.81,2.55-17.71,3.56-5.91.92-11.79,1.5-17.58,2-5.76.35-11.41.44-16.92.37,0,0-.25,0-.72-.01-.47-.02-1.16-.05-2.06-.08-1.79-.07-4.38-.18-7.59-.3-6.45-.19-15.27-.78-25.1-1.42-19.64-1.37-42.9-3.77-58.63-5.18,0,0-3.48-.98-9.62-2.5-3.07-.75-6.85-1.65-11.18-2.61-4.32-.95-9.24-1.98-14.64-3.01-10.77-2-23.53-4.08-37.41-5.29-3.47-.29-7.04-.65-10.63-.8-3.6-.17-7.26-.31-10.98-.41-3.72-.1-7.45.01-11.24.07-1.89.05-3.79.11-5.7.16-1.9.14-3.8.28-5.71.41,0,0-.96.04-2.75.12-1.79.1-4.44.15-7.77.37-3.31.25-7.33.56-11.96.92-2.31.19-4.78.51-7.37.78-2.6.3-5.32.55-8.18.93-11.43,1.5-24.81,3.67-39.48,6.52-14.67,2.82-30.73,6.33-47.59,9.54-16.84,3.22-34.53,6.04-51.78,7.56-2.15.19-4.29.41-6.42.57-2.14.12-4.27.24-6.38.36-4.23.21-8.37.51-12.46.49-4.09.04-8.08.09-11.98.08-3.89-.15-7.68-.3-11.35-.44-1.83-.09-3.64-.14-5.4-.26-1.75-.14-3.47-.28-5.15-.41-3.41-.26-6.48-.61-9.47-.94-3.01-.32-5.74-.69-8.35-1.04-2.61-.35-5.04-.7-7.24-1.06-4.45-.71-8.16-1.41-10.99-2.09-2.85-.68-4.88-1.32-5.96-1.93,0,0-6.44-1.07-16.52-2.75-10-1.66-23.47-3.93-37.4-5.87-1.74-.24-3.49-.48-5.25-.73-1.74-.21-3.48-.43-5.23-.64-3.53-.48-6.93-.77-10.36-1.15-1.73-.21-3.37-.31-5.02-.44-1.65-.13-3.29-.27-4.91-.4-1.57-.08-3.12-.15-4.65-.23-1.51-.06-3.08-.21-4.45-.18-5.26-.19-11.9.09-17.18.14-5.39.07-9.97.03-13.36-.21,0,0-10.46-2.35-26.84-3.63-16.39-1.29-38.59-1.56-62.08,2.06,0,0-9.04.09-21.47-.17-12.42-.25-28.22-.96-41.64-2.35-13.44-1.34-24.45-3.46-27.58-5.23-1.57-.93-1.18-1.7,1.82-2.43,1.5-.36,3.66-.69,6.55-.99,2.9-.36,6.54-.64,11.01-1.01,0,0,2.58-.34,6.79-.88,2.1-.29,4.61-.65,7.41-1.04,2.79-.41,5.87-.87,9.12-1.35,12.98-1.95,28.59-4.65,39.23-6.31,0,0,4.75-.45,13.09-1.24,8.35-.82,20.3-2.07,34.72-3.71,14.47-1.68,31.4-3.64,49.62-5.76,4.6-.5,9.27-1.01,14.02-1.53,2.4-.23,4.81-.47,7.23-.71,2.57-.17,5.16-.34,7.76-.52,10.31-.4,20.54.01,30.68.75,10.13.77,20.15,1.96,30.01,3.24,9.84,1.33,19.5,2.78,28.86,4.26,18.71,2.93,36.27,5.96,51.56,7.87,1.91.23,3.79.49,5.63.68,1.84.17,3.65.34,5.42.5,1.77.17,3.51.33,5.2.49,1.7.15,3.35.36,4.97.42,3.24.19,6.31.37,9.18.54,1.44.08,2.84.21,4.18.24,1.35.04,2.64.07,3.89.11,9.97.42,16.66.41,18.86.89,0,0,1.31-.02,3.79-.06,2.48-.13,6.14-.32,10.83-.56,2.35-.1,4.96-.34,7.81-.58,2.85-.25,5.95-.48,9.26-.82,3.32-.36,6.86-.74,10.61-1.15,3.75-.46,7.71-.95,11.86-1.46,16.6-2.1,36.22-5.15,57.93-7.49,21.71-2.37,45.51-3.84,70.31-3.29,24.79.48,50.51,2.36,76.12,4.29,25.61,1.94,51.13,3.84,75.44,4.18,24.29.37,47.34-.86,67.59-4.38,5.06-.88,9.93-1.97,14.62-3.02,2.35-.5,4.64-1.19,6.89-1.81,2.25-.64,4.45-1.28,6.6-1.94,4.31-1.39,8.45-2.9,12.35-4.41,3.92-1.57,7.65-3.26,11.14-4.94Z"/>
        <path class="cls-5" d="M923.65,56.27s1.41-.5,3.96-1.4c2.57-.86,6.29-2.12,10.92-3.67,9.26-3,22.3-7.17,37.41-11.02,15.1-3.85,32.43-7.41,50-8.82,4.42-.32,8.78-.58,13.13-.63,4.39-.02,8.7.08,12.91.32,4.27.34,8.42.81,12.41,1.44,3.99.63,7.9,1.59,11.55,2.62,0,0,.67.08,1.92.22,1.25.15,3.06.34,5.38.72,2.31.36,5.1.8,8.28,1.29.79.13,1.61.26,2.44.39.42.07.84.14,1.27.21.4.08.81.16,1.22.24,1.64.32,3.35.66,5.13,1.02,14.24,2.83,32.42,7.05,48.9,11.78,16.49,4.73,31.34,9.89,39.11,14.4,7.78,4.49,8.49,8.27-3.32,10.38,0,0-2.88.49-8.25,1.41-5.36.89-13.2,2.18-23.08,3.73-9.84,1.54-21.75,3.41-35.34,5.53-3.37.53-6.85,1.08-10.42,1.65-3.56.57-7.21,1.16-10.96,1.76-1.86.3-3.75.61-5.66.91-1.85.35-3.73.7-5.63,1.06-1.88.35-3.79.7-5.71,1.06-1.92.34-3.87.82-5.82,1.22-15.63,3.28-32.2,7.6-49.69,12.47-17.5,4.86-35.94,10.26-55.49,15.33-19.52,5.07-40.25,9.78-62.08,12.85l-8.21,1.11-8.35.86c-5.57.62-11.17.89-16.77,1.19l-4.2.21c-1.4.08-2.8.13-4.18.13-2.77.03-5.54.06-8.3.09-2.76,0-5.55.06-8.27-.02-2.73-.09-5.45-.18-8.16-.27,0,0-1.17-.06-3.47-.07-1.15,0-2.59.02-4.3.05-1.69.01-3.66.05-5.91.13-4.47.14-10.12.53-16.67,1-3.29.25-6.85.58-10.68.98-3.78.37-7.81.8-12.12,1.34,0,0-1.42-.03-3.98-.09-2.55-.08-6.17-.23-10.67-.45-2.24-.12-4.7-.26-7.33-.4-2.6-.17-5.37-.36-8.28-.56-5.86-.42-12.14-.94-18.7-1.57-3.25-.33-6.58-.67-9.95-1.02-3.34-.36-6.73-.76-10.1-1.19-3.33-.4-6.67-.83-9.98-1.31-3.28-.49-6.54-.98-9.74-1.47-3.18-.51-6.29-1.06-9.32-1.66-3-.56-5.89-1.14-8.67-1.78-2.77-.63-5.47-1.37-7.94-2.06-2.48-.69-4.82-1.44-6.98-2.26,0,0-1.55-.32-4.36-.91-2.82-.6-6.79-1.24-11.77-2.12-1.24-.21-2.55-.44-3.9-.67-1.35-.22-2.74-.39-4.19-.6-2.9-.4-6-.82-9.25-1.26-3.25-.42-6.57-.67-10.07-1.02-1.75-.15-3.52-.36-5.34-.47-1.82-.09-3.67-.19-5.53-.29-14.95-.82-31.65-.44-47.82,1.02-16.14,1.43-31.75,3.78-43.83,6.34,0,0-.64-.03-1.81-.08-1.18-.04-2.89-.09-5.04-.16-2.17-.06-4.77-.12-7.69-.14-2.94,0-6.2,0-9.69,0-3.52,0-7.19.14-11.08.21-3.88.08-7.86.23-11.84.5-4.02.18-8.06.43-11.98.84-.98.11-1.96.22-2.92.34-.97.1-1.94.21-2.9.31-1.92.22-3.79.48-5.62.79,0,0,1.13-.11,3.26-.31,2.13-.2,5.26-.46,9.19-1.01,7.89-.97,19.17-2.51,32.31-5.01,13.17-2.41,28.28-5.69,43.98-9.19,15.74-3.47,32.21-7.03,48.77-9.66l3.11-.52,3.1-.43,6.22-.85c4.16-.63,8.29-.98,12.42-1.41,2.06-.2,4.13-.46,6.19-.6,2.06-.13,4.11-.26,6.15-.39,2.05-.13,4.09-.26,6.12-.38,2.04-.11,4.1-.12,6.13-.18,2.04-.05,4.07-.09,6.08-.14,2.02-.05,4.02-.1,6.03-.06,4.01.05,7.96.11,11.84.16,3.89.11,7.73.32,11.47.49,1.87.1,3.72.17,5.55.29,1.84.14,3.65.27,5.43.41,3.58.28,7.04.54,10.4.87,3.37.37,6.61.72,9.73,1.06,1.56.18,3.08.36,4.57.54,1.49.21,2.95.41,4.38.61,2.84.41,5.54.81,8.07,1.22,10.14,1.68,17.64,3.46,21.54,5.22,0,0,1.82.42,5.25,1.12,3.43.7,8.47,1.67,14.98,2.76,12.97,2.16,31.76,4.93,55.03,6.15,5.82.28,11.93.44,18.24.54,3.18-.02,6.42-.06,9.71-.12,3.29-.07,6.61-.11,10.03-.34,3.41-.2,6.85-.42,10.34-.67.87-.06,1.75-.13,2.62-.19.88-.09,1.77-.19,2.65-.28,1.77-.2,3.55-.4,5.35-.61,1.79-.22,3.59-.44,5.39-.65,1.8-.23,3.62-.44,5.43-.77,3.63-.6,7.29-1.23,10.97-1.89,14.65-2.88,29.42-6.88,44.11-11.86,14.7-4.97,29.3-10.94,43.88-17.59,0,0,2.04-2.07,3.61-5.08,1.57-3.01,2.67-6.97.73-10.78-1.94-3.81-6.9-7.45-17.42-9.79-5.21-1.19-11.87-2-20.04-2.46-2.05-.11-4.2-.19-6.46-.24-2.25-.06-4.59-.12-7.05-.13-2.45-.02-5.04.03-7.7.04-2.66.01-5.43.06-8.33.14Z"/>
        <path class="cls-1" d="M1000.44,17.63c17.4-5.72,36.05-12.37,57.74-16.31,1.48-.21,3.05-.4,4.7-.57,1.64-.18,3.37-.32,5.2-.38,3.64-.17,7.5-.27,11.43-.35,3.94-.06,8.06.08,12.03.1,3.73.03,7.37.07,10.77.1,16.89.29,34,3.7,45.33,6.02,25.77,6.62,58.82,12.17,90.61,18.24,15.9,3.02,31.49,6.15,45.71,9.51,3.56.84,7.03,1.7,10.4,2.57,1.68.45,3.34.89,4.98,1.33,1.49.42,2.95.84,4.39,1.24,5.65,1.64,10.92,3.51,15.76,5.18,3.21.85,6.05,1.54,8.97,2.1,2.93.5,5.93.82,9.41,1.07.99-.2,3.32-.43,5.65-.67,2.35-.3,4.7-.6,5.67-.83,21.44-.07,43.05-.33,64.08-2.58,34.56-4.31,71.01-2.6,105.64,2.05,4.83.53,9.94,1.09,15.22,1.67,2.64.27,5.33.54,8.05.81,2.71.26,5.48.61,8.25.91,11.11,1.19,22.31,2.69,32.86,4.33,9.09,1.46,15.97,3.4,21.69,5.6,5.75,2.17,10.32,4.58,14.87,6.93,9.07,4.7,17.92,9.24,34.8,11.83,13.49,2.31,26.57,3.78,39.46,4.67,6.45.47,12.83.73,19.19.97,6.35.16,12.68.32,18.98.31,6.31.06,12.59-.05,18.89-.08,6.47-.06,13.03-.08,19.6,0,13.14.18,26.48.77,40.12,2.1,15.87,1.88,30.81,3.4,45.36,4.8,14.57,1.41,28.77,2.82,43.25,4.36,5.36.87,10.88,1.38,16.53,1.95,5.65.53,11.42.82,17.28,1.19,5.85.21,11.78.47,17.75.61,2.99.06,5.98.11,8.97.17,3,.07,6,.15,8.99.16,2.77,0,7.68.71,11.87,1.56,4.19.84,7.66,1.72,7.51,2.3-2.31,1.96-15.59,2.77-23.53,4.59-5.48,1.11-10.34,1.63-14.75,1.78-4.42.06-8.4-.26-12.14-.74-3.73-.45-7.24-1.21-10.7-1.88-3.47-.7-6.9-1.27-10.54-1.76-4.59-.47-9.5-.59-14.65-.69-2.58-.06-5.21-.07-7.89-.06-1.34.01-2.69.03-4.06.04-1.36,0-2.74,0-4.12,0-2.77.02-5.57.05-8.4.07-2.83.03-5.68,0-8.55-.02-5.73,0-11.51-.16-17.23-.44-4.66-.47-8.79-1.15-12.85-1.91-4.06-.76-8.07-1.68-12.48-2.77-12.18-3.43-30.55-2.07-48.5-1.66-5.56.29-11.19.19-16.87-.12-2.84-.16-5.69-.37-8.56-.62-2.86-.25-5.68-.56-8.53-.87-11.39-1.24-22.89-2.97-34.49-3.61-15.39-1.04-29.71-.61-43.41-.52-13.69.09-26.73-.18-39.57-2.73,10.92,2.39-12.88.33-36.57-1.44-11.84-.94-23.67-1.67-31.03-2.23-7.36-.55-10.27-.92-4.23-1.19-2.16.44-8.99-2.02-10.28-3.69.49-1.04-.81-2.7,1.36-3.13,4.36-.87,7.57-1.92,10.04-3.09,2.46-1.16,4.17-2.4,5.53-3.72,2.73-2.63,4.05-5.49,7.26-7.96-.44-.16-4.76-.47-11.38-.92-3.33-.17-7.24-.37-11.52-.59-4.29-.23-8.92-.33-13.75-.54-19.31-.73-41.27-1.03-53.34-2.55-18.39-2.7-34.67-5.7-57.33-4.89-5.83.75-8.57,3.48-14.37,4.18-1.65.11-5.59.71-11.12,1.53-2.78.43-5.98.93-9.53,1.49-3.53.52-7.41,1.09-11.57,1.7-16.62,2.38-37.61,4.89-58.87,5.82-2.67.18-5.32.23-7.98.28-2.66.06-5.31.11-7.95.17-1.34.02-2.6.07-4,.06-1.38,0-2.76,0-4.14-.01-2.75-.01-5.47-.02-8.16-.03-10.76-.05-20.99-.15-30.12-.28-18.24-.28-32.02-.75-36.65-1.64-10.91-2.57-24.61-7.58-21.34-9.85,3.79-7.04-15.99-12.29-22.74-19.03-1.11-1.74,3.81-3.28,2.7-5.04-5.59-4.99-16.81-11.19-30.28-13.22-11.25-2.32-23.88-4.14-36.41-5.26-6.37-.51-12.27-.95-19.29-1.01-3.34-.04-6.65-.1-9.78.01-3.12.13-6.14.29-9.04.5-24.63.09-48,2.15-70.25,4.53Z"/>
        <path class="cls-8" d="M422.41,161.33s1.53-.08,4.4-.22c2.86-.23,7.05-.55,12.37-.91,1.33-.09,2.73-.18,4.19-.28,1.46-.11,2.97-.28,4.56-.43,3.16-.29,6.58-.6,10.23-.94,1.84-.14,3.68-.37,5.59-.59,1.91-.22,3.86-.44,5.88-.67,2.01-.22,4.07-.44,6.18-.67,2.06-.27,4.18-.55,6.33-.84,17.3-2.15,36.68-5.2,55.88-7.57,19.24-2.36,38.35-3.83,56.26-2.64,0,0,.24,0,.68-.01.45-.02,1.09-.01,1.91,0,1.63.02,3.98.04,6.83.07,1.42.02,2.98,0,4.62.05,1.62.06,3.34.13,5.13.2,1.79.06,3.65.12,5.56.19,1.91.07,3.83.26,5.79.37,1.95.12,3.93.25,5.9.37l1.48.09,1.53.14c1.02.09,2.03.19,3.04.28,2.01.17,4,.34,5.93.51.97.08,1.92.15,2.86.22.96.1,1.9.2,2.82.29,3.69.38,7.07.68,9.93.87,2.87.21,5.31.42,6.96.4,3.3.62,6.52,1.15,9.86,1.82l10.01,2.02s25.31,2.74,52.91,5.72c3.6.35,7.25.71,10.88,1.06,3.71.34,7.41.67,11.06.96,1.83.14,3.64.28,5.44.41,1.83.12,3.64.23,5.42.35,3.56.21,7.02.39,10.32.52,6.75.21,12.84.25,17.96,0,5.19-.28,9.32-.81,12-1.63,0,0,.87.03,2.4.09,1.52.08,3.77.12,6.49.2,5.45.13,12.72.42,20.53.48,3.89.04,7.78.18,11.65.18,3.87,0,7.6.02,10.97.07,1.69.03,3.29.07,4.78.1,1.51.02,2.91.03,4.16.05,2.51.05,4.45.17,5.61.36,0,0,2.96.05,8.31-.09,2.67-.12,5.93-.35,9.71-.64,1.89-.16,3.92-.31,6.04-.54,2.09-.26,4.31-.54,6.63-.83,2.32-.31,4.75-.65,7.28-1.03,2.48-.41,5.04-.88,7.7-1.38,2.64-.51,5.43-1.02,8.18-1.64,2.76-.62,5.59-1.29,8.48-2,1.44-.36,2.92-.72,4.38-1.11,1.45-.4,2.91-.81,4.39-1.22,2.95-.84,5.97-1.72,9-2.66,5.96-1.91,12.2-4.03,18.3-6.39"/>
        <path class="cls-7" d="M1445.5,36.51c4.49.02,13.05.13,24.09.45,10.97.29,24.4.86,38.05,1.72,3.42.22,6.88.51,10.29.77,3.43.29,6.8.5,10.16.86,3.35.35,6.65.69,9.86,1.03,3.2.34,6.32.68,9.33,1.1,3.01.41,5.89.81,8.62,1.18,2.73.38,5.26.84,7.63,1.24,4.72.81,8.69,1.57,11.62,2.31,37.4,8.54,70.21,18.74,104.9,29.28,3.62.79,8.66,1.39,11.5.98,11.26-1.2,23.44-.66,35.46,0,5.99.26,11.96.66,17.71.74,2.9.06,5.66.09,8.53.05,2.88-.04,5.69-.14,8.41-.33,9.46-.49,18.09-2.03,28.33-1.35,26.84,1.8,52.24,4.78,76.4,7.55,24.19,2.81,47.37,5.49,70.15,7.41,19.14,1.84,35.62,4.58,54.99,5.85,3.52.65,9.61,1,9.25,2.47,1.02.95-7.81,1.66-12.4,2.75-5.57.17-10.31-.84-17.71-.8-1.69-.05-3.43-.07-5.2-.06-1.77-.02-3.58-.02-5.4,0-3.65.04-7.36.15-11.03.23-3.68.02-7.3.02-10.76-.07-1.73-.05-3.41-.1-5.04-.23-1.63-.14-3.2-.3-4.7-.51-3.34-.32-6.5-.69-9.58-1.08-3.08-.46-6.1-.92-9.16-1.38-6.1-.86-12.37-1.94-19.64-2.65-4.91-.46-9.53-.82-14.18-1.1-4.66-.35-9.34-.59-14.37-.79-18.06-1.3-35.99-2.78-54-3.96-18.01-1.18-36.07-2.08-54.34-2.48-3.66.84-7.64,1.21-11.96,1.33-4.3.12-8.88-.17-13.52-.51-4.64-.37-9.35-.96-13.92-1.46-4.58-.55-9.03-1.1-13.16-1.44-5.05-.57-9.74-1.8-15.86-2.88-15.13-1.76-31.4-1.64-41.64-5.37-20.13-8.12-40.81-15.61-66.76-21.55-2.62-.61-6.32-1.37-10.87-2.13-2.28-.38-4.75-.8-7.4-1.25-2.66-.42-5.51-.81-8.5-1.23-11.96-1.69-26.09-3.13-40.3-4.29-14.14-1.05-28.35-1.83-40.27-2.23-2.99-.1-5.85-.2-8.55-.29-2.67-.06-5.18-.12-7.51-.18-4.64-.09-8.56-.14-11.37-.12-15.16-.1-29.63.95-43.82,1.92-14.16.99-27.87,1.69-41.4,1.13-1.19-.02,3.61-2.47,17.04-4.74,3.39-.62,7.32-1.22,11.83-1.77,4.57-.61,9.74-1.19,15.59-1.7,11.78-1.1,26.34-2.03,44.55-2.45Z"/>
      </g>
    </g>
  </g>
</svg>